<?xml version="1.0" encoding="UTF-8" standalone="no"?>
<!-- Created with Inkscape (http://www.inkscape.org/) -->

<svg
   width="211.82663mm"
   height="211.75308mm"
   viewBox="0 0 211.82663 211.75308"
   version="1.1"
   id="svg1"
   xml:space="preserve"
   inkscape:version="1.4 (86a8ad7, 2024-10-11)"
   sodipodi:docname="bless.svg"
   xmlns:inkscape="http://www.inkscape.org/namespaces/inkscape"
   xmlns:sodipodi="http://sodipodi.sourceforge.net/DTD/sodipodi-0.dtd"
   xmlns="http://www.w3.org/2000/svg"
   xmlns:svg="http://www.w3.org/2000/svg"><sodipodi:namedview
     id="namedview1"
     pagecolor="#ffffff"
     bordercolor="#000000"
     borderopacity="0.25"
     inkscape:showpageshadow="2"
     inkscape:pageopacity="0.0"
     inkscape:pagecheckerboard="0"
     inkscape:deskcolor="#d1d1d1"
     inkscape:document-units="mm"
     inkscape:zoom="0.71891835"
     inkscape:cx="395.7334"
     inkscape:cy="423.55297"
     inkscape:window-width="1920"
     inkscape:window-height="1009"
     inkscape:window-x="-8"
     inkscape:window-y="-8"
     inkscape:window-maximized="1"
     inkscape:current-layer="layer1" /><defs
     id="defs1" /><g
     inkscape:label="Layer 1"
     inkscape:groupmode="layer"
     id="layer1"
     transform="translate(-0.23678844,-36.254996)"><path
       style="fill:#000000"
       d="m 104.16466,246.80046 c -4.192322,-2.82327 -6.838982,-7.93855 -5.536282,-10.70014 0.54666,-1.15885 2.995572,-2.58284 6.192382,-3.60073 1.51361,-0.48195 2.57387,-0.23352 6.1327,1.43696 2.62022,1.22991 3.40035,2.48191 2.97645,4.77676 -0.30386,1.64498 -1.66608,4.1423 -3.23296,5.92688 -0.88128,1.00373 -4.10254,3.36789 -4.58887,3.36789 -0.0826,0 -0.95716,-0.54343 -1.94342,-1.20762 z m -9.840732,-15.50378 c -1.45586,-1.53955 -4.05526,-5.587 -4.05526,-6.31433 0,-0.095 0.91282,-0.2416 2.02848,-0.32569 2.35654,-0.17761 4.03307,-0.90287 6.02144,-2.60483 2.918742,-2.49834 3.188332,-5.64057 1.715322,-19.99306 -0.433122,-4.2201 -0.736802,-7.67292 -0.674852,-7.67292 0.0619,0 0.52775,0.38493 1.035122,0.85539 0.50737,0.47046 1.65138,1.11778 2.54224,1.43851 0.89087,0.32072 1.95497,0.74461 2.36468,0.94198 0.50534,0.24345 0.95918,0.24318 1.41111,-8.3e-4 0.3664,-0.19783 1.38056,-0.62303 2.25369,-0.94488 0.87312,-0.32185 2.09284,-0.96881 2.71049,-1.43768 0.61764,-0.46887 1.18042,-0.85249 1.25063,-0.85249 0.0702,0 -0.0708,1.86532 -0.31336,4.14514 -0.24256,2.27983 -0.67108,7.14668 -0.95229,10.81523 -0.68985,8.99964 -0.25101,10.82126 3.25524,13.51232 1.66945,1.28131 3.41273,1.86136 5.60276,1.86424 0.82462,0.001 1.4993,0.0988 1.4993,0.21717 0,0.11836 -0.49504,1.14399 -1.10009,2.27918 -1.11406,2.09019 -4.80698,5.97866 -5.66469,5.96465 -0.25694,-0.004 -0.70529,-0.51929 -0.99633,-1.14465 -2.14943,-4.61845 -14.792122,-4.34554 -16.609252,0.35853 -0.48154,1.24658 -1.38847,0.94622 -3.32438,-1.10098 z m -10.26838,-9.03189 c -3.18228,-0.67754 -4.34203,-1.12031 -6.37336,-2.43322 -1.76489,-1.14071 -4.05496,-3.72514 -3.59334,-4.05522 0.0706,-0.0505 1.40223,-0.26908 2.9591,-0.48572 1.55686,-0.21664 3.75463,-0.73959 4.88393,-1.16211 2.20314,-0.82431 5.16179,-3.31987 5.16179,-4.35388 0,-1.3435 -1.21433,-2.76985 -4.32166,-5.07624 -6.65297,-4.93811 -9.28547,-7.95864 -11.07958,-12.71267 -1.15286,-3.05485 -2.21885,-7.88237 -2.23541,-10.12349 -0.007,-0.97014 -0.15018,-1.98035 -0.3178,-2.24492 -0.18583,-0.29331 -1.38828,-0.59114 -3.0814,-0.76321 -5.39428,-0.54822 -10.57876,-2.15242 -13.95847,-4.31908 -2.66595,-1.70909 -8.51483,-8.31417 -10.10564,-11.41222 -0.52713,-1.02655 -2.62877,-1.97402 -3.75289,-1.69188 -2.22963,0.5596 -4.46108,4.69851 -5.19056,9.62748 -0.21896,1.47947 -0.50285,2.81234 -0.63086,2.96193 -0.45016,0.52603 -3.01829,-1.78129 -4.21982,-3.79127 -2.18957,-3.66281 -2.87881,-10.42308 -1.37864,-13.52201 0.90552,-1.87056 2.213,-2.54893 6.62943,-3.4396 3.35773,-0.67716 6.10621,-0.57287 13.54924,0.51414 l 4.48691,0.65528 2.01677,1.90394 c 4.38016,4.1351 8.24495,6.27198 11.84546,6.54947 1.86159,0.14348 2.33798,0.0494 3.39208,-0.66951 1.35679,-0.92542 2.73188,-2.77284 3.0717,-4.12681 0.15453,-0.61568 -0.11379,-1.52177 -0.89417,-3.01957 -0.88584,-1.70019 -1.18702,-2.84389 -1.46565,-5.56562 -0.45089,-4.40433 -0.44494,-9.3327 0.0172,-14.20576 0.31962,-3.37058 0.52248,-4.15064 1.56348,-6.01212 l 1.19621,-2.13902 -0.63876,-1.39621 c -0.35131,-0.76791 -1.20867,-1.93835 -1.90524,-2.60097 -3.24066,-3.08273 -9.61521,-1.1134 -16.35346,5.05219 l -2.18796,2.00201 -4.8676,0.71678 c -6.8058,1.00218 -11.56224,1.01427 -14.88485,0.0378 -1.43491,-0.42168 -2.92577,-1.04823 -3.31302,-1.39232 -1.87998,-1.67046 -2.51238,-5.74602 -1.63122,-10.51262 0.64103,-3.46767 2.79451,-7.01209 4.93183,-8.11734 1.353,-0.69967 1.38661,-0.68362 1.38661,0.66179 0,1.59936 1.20824,6.21328 2.06879,7.9001 1.90669,3.73742 4.40818,4.69609 6.45832,2.47508 0.58208,-0.63059 1.98095,-2.41652 3.1086,-3.96875 3.38034,-4.65306 6.62226,-7.68746 9.97184,-9.33354 3.34863,-1.64561 7.29043,-2.73011 11.482,-3.15901 1.60988,-0.16473 3.01792,-0.39038 3.12897,-0.50143 0.11105,-0.11105 0.33669,-1.51909 0.50142,-3.12896 0.72112,-7.04733 3.06832,-12.7927 6.71684,-16.44123 1.21271,-1.2127 3.48396,-3.1925 5.04722,-4.39954 5.56694,-4.2984 6.58915,-5.78163 5.24134,-7.60519 -1.0715,-1.449737 -5.23357,-3.434623 -8.24725,-3.933107 -1.43858,-0.237951 -2.97391,-0.535216 -3.41184,-0.660591 -0.79523,-0.22766 -0.79542,-0.22954 -0.14671,-1.461841 0.83181,-1.580095 3.28472,-3.244057 6.31646,-4.284843 1.90517,-0.65404 3.13607,-0.819668 6.09178,-0.819703 5.76745,-6.6e-5 6.66953,0.81556 7.95571,7.193204 0.68034,3.373571 0.55171,6.701831 -0.53267,13.782751 l -0.64889,4.23712 -1.81081,1.98132 c -4.6185,5.05338 -6.48707,8.59562 -6.52524,12.36989 -0.0237,2.34744 0.0517,2.61406 1.03273,3.64828 1.12584,1.18693 3.31467,2.46226 4.22595,2.46226 0.30243,0 1.41364,-0.46093 2.46935,-1.02429 2.23938,-1.195 6.57402,-1.79794 12.925772,-1.79794 6.40509,0 10.34935,0.60583 12.80488,1.96681 1.99524,1.10585 2.15841,1.13889 3.28996,0.6661 2.91988,-1.22001 4.31872,-3.07406 4.32204,-5.72852 0.005,-3.63865 -1.7873,-7.18439 -6.17028,-12.2099 l -2.32457,-2.66533 -0.71793,-4.8611 c -0.98917,-6.6976 -0.9975,-11.531362 -0.0256,-14.878366 1.16108,-3.998626 2.37415,-4.939535 6.73728,-5.225713 5.51147,-0.361498 11.64767,2.089217 13.32997,5.323813 0.62547,1.202594 0.24673,1.61472 -1.49197,1.623479 -2.66239,0.01341 -8.01772,2.029668 -9.81494,3.695277 -0.99253,0.91985 -1.23282,2.49477 -0.56969,3.73386 0.19857,0.37101 1.58763,1.57528 3.08681,2.67615 4.12033,3.0256 8.33169,6.96578 9.78436,9.15432 2.41859,3.64376 4.23232,9.53598 4.468,14.51504 l 0.10392,2.19563 1.59309,0.18542 c 6.70256,0.78012 10.62625,1.83573 14.11669,3.7979 2.41757,1.35904 6.75685,5.73831 9.94656,10.0382 1.33523,1.79998 2.72868,3.43377 3.09655,3.63065 1.23371,0.66026 2.80982,0.41812 3.72813,-0.57275 1.66561,-1.79722 3.68187,-7.15256 3.69528,-9.81495 0.009,-1.73869 0.42088,-2.11744 1.62348,-1.49197 3.23459,1.68231 5.68531,7.81851 5.32381,13.32998 -0.28618,4.36313 -1.22709,5.5762 -5.22571,6.73727 -3.34701,0.97187 -8.18077,0.96354 -14.87837,-0.0256 l -4.8611,-0.71794 -2.66533,-2.32456 c -5.02552,-4.38299 -8.57125,-6.17483 -12.2099,-6.17029 -2.65446,0.003 -4.50852,1.40216 -5.72852,4.32204 -0.47302,1.13209 -0.43989,1.29448 0.67389,3.30403 1.41302,2.54943 1.87851,5.73229 1.87677,12.83272 -0.002,7.3162 -0.45096,10.51004 -1.84713,13.13385 l -1.17247,2.20343 0.81247,1.59178 c 0.44686,0.87547 1.31483,2.06803 1.92882,2.65011 1.03332,0.97962 1.30471,1.05679 3.64887,1.03761 3.84585,-0.0315 7.4742,-1.97894 12.65872,-6.79446 1.63493,-1.51857 1.72264,-1.55109 5.91314,-2.19284 7.09763,-1.08694 10.42364,-1.21594 13.79922,-0.53519 6.30154,1.27083 7.20912,2.29677 7.1939,8.1321 -0.0106,4.06678 -0.88433,7.20623 -2.76508,9.93537 -0.94676,1.37384 -3.27889,3.17906 -3.6402,2.81774 -0.0586,-0.0586 -0.35309,-1.52331 -0.65437,-3.25485 -0.83786,-4.81541 -3.00272,-8.98413 -4.91476,-9.46402 -1.35866,-0.341 -2.83281,0.61585 -4.69751,3.04907 -2.78037,3.62808 -6.31449,7.63917 -7.89206,8.95719 -3.62031,3.02469 -8.43779,4.62477 -16.88379,5.60781 l -1.59309,0.18542 -0.10744,2.19564 c -0.11982,2.44861 -0.83957,6.22438 -1.69623,8.89841 -1.65135,5.15461 -4.95738,9.28151 -10.88516,13.5879 -1.55222,1.12765 -3.33816,2.52652 -3.96875,3.1086 -2.221,2.05014 -1.26233,4.55163 2.47509,6.45832 1.68681,0.86055 6.30074,2.06879 7.90009,2.06879 1.34542,0 1.36146,0.0336 0.6618,1.38661 -2.23272,4.31759 -11.47334,6.89701 -16.59323,4.63181 -1.9428,-0.85955 -2.54914,-1.65378 -3.41333,-4.47101 -0.97096,-3.16528 -0.96462,-8.42063 0.0182,-15.05806 l 0.72072,-4.8676 2.00201,-2.18796 c 4.5187,-4.9384 6.72284,-9.469 6.41465,-13.18531 -0.12992,-1.56666 -0.36994,-2.12479 -1.36246,-3.16816 -0.66262,-0.69656 -1.83644,-1.55543 -2.6085,-1.9086 l -1.40373,-0.64213 -1.91524,1.09578 c -2.53493,1.45035 -6.19371,2.02253 -12.98996,2.03147 -7.120032,0.009 -10.305162,-0.43749 -13.002262,-1.82409 -1.49073,-0.76639 -2.4068,-1.03318 -3.01957,-0.87939 -1.35397,0.33983 -3.20139,1.71491 -4.12681,3.0717 -0.71896,1.0541 -0.81299,1.53049 -0.66951,3.39209 0.27749,3.6005 2.41437,7.46529 6.54947,11.84546 l 1.90394,2.01677 0.65528,4.4869 c 1.08701,7.44304 1.1913,10.19152 0.51414,13.54925 -0.91092,4.51685 -1.61933,5.86509 -3.52454,6.70785 -1.83504,0.81173 -5.36507,1.13723 -7.47086,0.68889 z m 26.850622,-50.28876 c 1.97905,-0.56033 6.65258,-3.17854 8.86718,-4.96759 0.80236,-0.64818 2.28177,-2.28859 3.28759,-3.64535 1.00581,-1.35677 2.57802,-3.01687 3.49381,-3.68912 5.49685,-4.03506 9.33164,-10.43928 9.81074,-16.38426 0.52271,-6.4861 -3.78921,-14.43414 -10.09439,-18.60671 -0.81752,-0.54101 -1.98422,-1.70825 -2.59267,-2.59387 -4.4614,-6.49378 -12.12989,-10.66163 -18.64972,-10.1362 -5.944992,0.4791 -12.349212,4.31388 -16.384272,9.81074 -0.67224,0.91578 -2.33235,2.488 -3.68911,3.49381 -1.35677,1.00581 -3.00018,2.48523 -3.65203,3.28759 -1.84261,2.26807 -4.68462,7.4794 -5.18368,9.50521 -0.67345,2.73367 -0.54442,6.41709 0.32509,9.27974 1.09271,3.59751 4.50699,8.55711 7.65035,11.11294 3.04922,2.47929 3.29624,2.72611 5.77622,5.77143 2.23716,2.74714 6.76565,6.07316 9.86831,7.24792 3.785132,1.43316 7.341372,1.59677 11.166582,0.51372 z m 77.71942,-15.95476 c -0.17761,-2.35654 -0.90286,-4.03308 -2.60483,-6.02144 -1.58571,-1.85255 -3.96126,-2.67333 -7.53731,-2.60422 -2.71429,0.0524 -13.97682,0.96754 -18.012,1.46348 -1.26118,0.15501 -2.35249,0.22927 -2.42514,0.16503 -0.0726,-0.0642 0.31041,-0.63944 0.85125,-1.27823 0.54084,-0.63878 1.41426,-2.10647 1.94094,-3.26152 l 0.95759,-2.10009 -0.64634,-1.50784 c -0.35548,-0.82932 -1.21827,-2.40193 -1.9173,-3.49469 -0.69904,-1.09277 -1.22217,-2.02877 -1.16251,-2.08002 0.0597,-0.0512 1.14033,0.0337 2.40151,0.18866 4.02104,0.49421 15.60983,1.43959 18.16806,1.4821 3.3232,0.0552 5.77374,-0.79601 7.36632,-2.55881 1.78325,-1.97385 2.4043,-3.37817 2.60618,-5.89314 0.098,-1.22144 0.24118,-2.2208 0.31808,-2.2208 0.0769,0 0.8886,0.3857 1.80379,0.85711 2.19098,1.12857 5.34474,3.94514 5.90234,5.27129 0.42381,1.00795 0.39409,1.08091 -0.65546,1.60885 -2.39843,1.20647 -3.65254,4.85441 -3.29064,9.57181 0.11261,1.46784 0.38082,3.13471 0.59604,3.70417 0.47798,1.26477 2.01121,2.93955 3.06692,3.35007 0.69195,0.26908 0.73876,0.42238 0.41369,1.35486 -0.42481,1.21862 -3.6171,3.96447 -6.03134,5.18786 -0.91603,0.46419 -1.73109,0.84398 -1.81124,0.84398 -0.0801,0 -0.21451,-0.91281 -0.2986,-2.02847 z m -168.595652,-0.2383 c -2.85239,-1.66973 -4.90294,-3.67568 -4.90294,-4.79632 0,-0.45122 0.41844,-0.86338 1.21394,-1.19577 2.27164,-0.94915 3.83807,-5.78128 3.0868,-9.52213 -0.66572,-3.31489 -1.62088,-5.09765 -3.05145,-5.69538 -0.68711,-0.28709 -1.24929,-0.76478 -1.24929,-1.06153 0,-1.38927 6.33873,-6.50654 8.0596,-6.50654 0.23129,0 0.40707,0.5419 0.40707,1.25489 0,2.62556 0.75008,4.45091 2.61678,6.36801 1.4323,1.47097 2.21871,1.96449 3.90961,2.45353 2.03661,0.58902 2.46358,0.58283 11.28889,-0.16355 5.04472,-0.42665 9.93662,-0.86902 10.87089,-0.98305 l 1.69866,-0.20733 -1.06994,1.68712 c -0.58847,0.92792 -1.31889,2.43664 -1.62316,3.35271 -0.52391,1.57735 -0.51372,1.77116 0.19243,3.65852 0.41011,1.09611 1.16498,2.49127 1.67749,3.10035 l 0.93183,1.10743 -1.75299,-0.21346 c -0.96414,-0.11739 -5.88049,-0.56252 -10.92521,-0.98917 -8.71901,-0.73739 -9.27237,-0.7465 -11.19912,-0.18452 -3.64902,1.06433 -6.17537,4.15559 -6.52221,7.9806 -0.11131,1.22756 -0.35971,2.11681 -0.59129,2.11681 -0.21965,0 -1.59952,-0.70255 -3.06639,-1.56122 z M 9.4463384,149.95829 c -2.69855,-0.52498 -6.2528899,-3.17598 -8.08392,-6.02941 L 0.23678844,142.17474 1.3624184,140.4206 c 1.8907201,-2.94643 5.38617,-5.50444 8.24268,-6.0321 2.2916696,-0.42331 3.5451996,0.35643 4.7850296,2.97646 1.96012,4.14214 2.00758,4.63463 0.75868,7.87313 -0.98513,2.55451 -2.45238,4.69776 -3.21606,4.69776 -0.1517,0 -0.48724,0.0607 -0.74564,0.13484 -0.25841,0.0742 -1.04175,0.0236 -1.7407696,-0.1124 z m 190.9833216,0.0778 c -0.4332,-0.0813 -1.24925,-0.70776 -1.81345,-1.39223 -1.00498,-1.21921 -2.5142,-5.10251 -2.5142,-6.46915 0,-1.35767 1.50624,-5.24632 2.49832,-6.44989 1.15609,-1.40253 2.1982,-1.7054 4.31476,-1.25398 1.89107,0.40333 5.32483,3.00215 7.49875,5.6754 l 1.64958,2.02847 -1.64958,2.02847 c -1.96925,2.42157 -5.59432,5.27698 -7.07498,5.57285 -0.58478,0.11686 -1.30136,0.25641 -1.59241,0.31013 -0.29104,0.0537 -0.8836,0.0312 -1.31679,-0.0501 z M 99.274528,89.34627 c 0.50131,-2.88169 1.593552,-15.26245 1.641702,-18.609025 0.043,-2.986326 -0.0842,-4.20573 -0.55208,-5.291667 -1.245342,-2.890767 -4.012512,-4.868081 -7.782872,-5.561351 l -2.3705,-0.435871 1.10831,-2.116667 c 1.18141,-2.256266 4.24484,-5.647229 5.36682,-5.940633 0.46684,-0.122081 0.76954,0.06071 0.97496,0.588735 0.40575,1.04299 2.08662,2.577064 3.344572,3.052473 0.56946,0.215212 2.23634,0.483427 3.70417,0.596033 4.70638,0.361054 8.36524,-0.892364 9.56494,-3.276659 0.42958,-0.853768 0.69351,-1.030917 1.2366,-0.830014 1.49772,0.55404 4.28733,3.513622 5.371,5.698239 l 1.10543,2.228493 -2.76622,0.540587 c -2.82807,0.552675 -3.21297,0.744161 -5.25848,2.616011 -2.61374,2.391839 -2.95361,4.268628 -2.29152,12.653746 0.27857,3.52806 0.71309,8.31966 0.96559,10.64799 0.2525,2.32833 0.42027,4.28214 0.37283,4.34179 -0.0475,0.0597 -0.98035,-0.46347 -2.07311,-1.16251 -1.09277,-0.69903 -2.66538,-1.56182 -3.49469,-1.9173 l -1.50784,-0.64634 -2.1001,0.95759 c -1.15505,0.52668 -2.59926,1.38034 -3.20935,1.89704 -1.391272,1.1783 -1.559822,1.17446 -1.350162,-0.0307 z m 3.816442,-37.888735 c -2.55088,-0.856101 -4.552172,-2.381883 -4.795792,-3.656309 -0.50493,-2.641359 1.875222,-6.688676 5.820022,-9.896648 l 2.02847,-1.649582 2.02848,1.649582 c 3.9448,3.207972 6.32495,7.255289 5.82002,9.896648 -0.24779,1.296235 -2.26185,2.807973 -4.8908,3.670997 -2.76707,0.908363 -3.26365,0.90715 -6.0104,-0.01469 z"
       id="path1" /></g></svg>
