<?xml version="1.0" encoding="UTF-8" standalone="no"?>
<!-- Created with Inkscape (http://www.inkscape.org/) -->

<svg
   width="175.03619mm"
   height="210.89595mm"
   viewBox="0 0 175.0362 210.89595"
   version="1.1"
   id="svg1"
   xml:space="preserve"
   inkscape:version="1.4 (86a8ad7, 2024-10-11)"
   sodipodi:docname="curse.svg"
   xmlns:inkscape="http://www.inkscape.org/namespaces/inkscape"
   xmlns:sodipodi="http://sodipodi.sourceforge.net/DTD/sodipodi-0.dtd"
   xmlns="http://www.w3.org/2000/svg"
   xmlns:svg="http://www.w3.org/2000/svg"><sodipodi:namedview
     id="namedview1"
     pagecolor="#ffffff"
     bordercolor="#000000"
     borderopacity="0.25"
     inkscape:showpageshadow="2"
     inkscape:pageopacity="0.0"
     inkscape:pagecheckerboard="0"
     inkscape:deskcolor="#d1d1d1"
     inkscape:document-units="mm"
     inkscape:zoom="0.50835204"
     inkscape:cx="390.47743"
     inkscape:cy="659.97571"
     inkscape:window-width="1920"
     inkscape:window-height="1009"
     inkscape:window-x="-8"
     inkscape:window-y="-8"
     inkscape:window-maximized="1"
     inkscape:current-layer="layer1" /><defs
     id="defs1" /><g
     inkscape:label="Layer 1"
     inkscape:groupmode="layer"
     id="layer1"
     transform="translate(-15.355323,33.88038)"><path
       style="fill:#000000"
       d="m 90.376987,176.84159 c -8.21424,-0.59962 -12.71675,-1.30375 -16.70981,-2.61318 -8.13353,-2.66719 -14.54852,-6.65651 -21.50829,-13.37545 -9.32279,-9.0002 -16.1363,-20.17837 -23.48373,-38.52717 -0.9548,-2.38443 -2.39248,-5.7565 -3.19486,-7.49349 -3.10175,-6.71472 -4.97565,-13.51074 -7.061578,-25.61006 -0.913134,-5.29659 -3.250556,-23.308507 -3.05142,-23.513915 0.03787,-0.03906 0.836602,2.500939 1.774964,5.644445 5.885884,19.71766 12.319144,33.86903 21.923314,48.22519 9.32431,13.9378 17.90555,21.43832 28.643,25.0357 4.81487,1.61313 4.84658,1.60379 5.35983,-1.57781 0.66022,-4.09268 1.9981,-8.71687 3.34029,-11.54527 1.04501,-2.20214 1.8943,-3.23215 5.91849,-7.17781 5.29737,-5.19398 8.7342,-8.02186 13.88641,-11.42595 10.519163,-6.95008 28.049573,-13.66257 41.922803,-16.05248 4.62131,-0.7961 4.66894,-0.66793 0.39476,1.06206 -17.60751,7.1267 -29.45356,16.98792 -35.47032,29.52718 -2.15662,4.49451 -4.569963,14.98466 -4.569963,19.86437 0,4.80088 3.579823,15.16388 8.101423,23.45228 l 2.78538,5.10579 -0.94548,0.23544 c -3.21585,0.80083 -12.273753,1.18216 -18.055213,0.76013 z m 69.498543,-4.78563 c -7.2e-4,-0.14425 0.38965,-2.28738 0.86749,-4.7625 2.05419,-10.6403 3.90889,-23.35899 4.97751,-34.13355 0.75906,-7.65335 1.07283,-25.71284 0.53699,-30.90709 -0.83916,-8.13443 -2.80456,-13.72086 -5.78855,-16.45333 l -1.63732,-1.49931 h -7.28275 c -11.57995,0 -16.23373,0.89617 -32.21572,6.20371 -11.62562,3.86081 -21.604973,7.77839 -34.247863,13.44465 -4.94771,2.21744 -9.23396,4.11946 -9.525,4.22669 -1.31233,0.48351 9.60637,-9.15543 16.09066,-14.2047 C 103.65462,84.62338 119.3306,75.357408 133.11572,69.461007 149.32886,62.52605 166.10039,58.900178 181.965,58.900178 h 3.99665 l 0.49726,0.970139 c 0.90823,1.77194 2.61664,7.624329 3.26967,11.200695 0.88706,4.858026 0.88308,18.123178 -0.007,24.694448 -1.7352,12.80487 -4.51533,23.11423 -9.86465,36.5804 -4.5854,11.54312 -9.13003,20.99178 -15.57786,32.38766 -3.42484,6.05306 -4.40135,7.67701 -4.40314,7.32244 z M 78.279877,86.15813 c -1.33441,-2.30278 -1.81558,-3.69667 -3.01605,-8.737118 -4.27723,-17.958848 -5.87597,-33.283834 -4.63713,-44.450001 0.77732,-7.006319 3.28885,-17.339652 6.04488,-24.8708341 2.73183,-7.46501097 7.52754,-15.307493 13.37497,-21.8722229 1.98752,-2.23132 4.09629,-4.657433 4.68617,-5.391363 2.44084,-3.036912 12.428733,-10.096793 18.138543,-12.82112 2.18539,-1.042718 4.07452,-1.895851 4.19807,-1.895851 0.12355,0 -0.41834,0.465765 -1.20419,1.035033 -0.78585,0.569268 -1.53104,1.200423 -1.65597,1.402568 -0.12493,0.202145 -1.06976,0.926826 -2.09961,1.610402 -2.96716,1.969492 -7.68331,6.594738 -9.70227,9.515266 -2.565343,3.710903 -4.145933,7.280432 -7.037713,15.8936759 -4.23075,12.601399 -5.39942,19.5133931 -4.67773,27.6661321 0.60248,6.805985 2.29988,16.41254 3.5716,20.213682 1.32786,3.968936 3.75675,8.521538 5.34822,10.024443 1.559893,1.473089 2.690783,2.007621 6.881183,3.252495 3.06971,0.91194 4.48717,1.1018 10.90417,1.460552 6.98363,0.39043 10.65234,0.272125 16.54803,-0.533622 0.81421,-0.111276 0.0681,0.230404 -1.76389,0.807759 -8.53258,2.68907 -16.65442,6.277346 -26.45834,11.689451 -9.204583,5.08125 -17.486163,10.91171 -23.531503,16.566833 l -2.32373,2.17374 z"
       id="path1" /></g></svg>
